# xmcd
#
# Track frame offsets:
#	150
#	11098
#	23174
#	34576
#	47158
#	57813
#	72599
#	86398
#	104434
#	119683
#	128496
#	141415
#	157318
#	172024
#	185511
#	200035
#	213715
#	227133
#
# Disc length: 3202 seconds
#
# Revision: 1
# Processed by: cddbd v1.4PL0 Copyright (c) Steve Scherf et al.
# Submitted via: audiograbber 1.82.02
#
DISCID=110c8012
DTITLE=Various Artist - The Great Soul Collection -- Disc Two
DYEAR=1900
DGENRE=Soul
TTITLE0=Lee Dorsey - Ya Ya
TTITLE1=Marv Johnson - You Got What it Takes
TTITLE2=The Drifters - Love Me Like a Rock
TTITLE3=Tyrone Davis - Can I Change My Mind
TTITLE4=Eddie Floyd - Bring it on Home to Me
TTITLE5=Percy Sledge - Warm and Tender Love
TTITLE6=Joe Simon - You Keep Me Hanging On
TTITLE7=Brook Benton - Rainy Night in Georgia
TTITLE8=George McCrae - Rock Your Baby
TTITLE9=The Box Tops - The Letter
TTITLE10=Gene Chandler - Groovy Situation
TTITLE11=Al Wilson - THe Snake
TTITLE12=Eddie Holman - Hey There Lonely Girl
TTITLE13=Percy Sledge - Take Time to Know Her
TTITLE14=Barabara Acklin - Love Makes a Woman
TTITLE15=Jimmy Ruffin - I've Passed this Way Before
TTITLE16=Major Lance - The Monkey Time
TTITLE17=Mary Wells - Two Lovers
EXTD=
EXTT0=
EXTT1=
EXTT2=
EXTT3=
EXTT4=
EXTT5=
EXTT6=
EXTT7=
EXTT8=
EXTT9=
EXTT10=
EXTT11=
EXTT12=
EXTT13=
EXTT14=
EXTT15=
EXTT16=
EXTT17=
PLAYORDER=
